<?xml version="1.0" encoding="UTF-8" standalone="no"?>
<!-- Created with Inkscape (http://www.inkscape.org/) -->

<svg
   width="500"
   height="500"
   viewBox="0 0 132.29166 132.29167"
   version="1.1"
   id="svg1"
   xml:space="preserve"
   inkscape:export-filename="bitmap.png"
   inkscape:export-xdpi="108.85714"
   inkscape:export-ydpi="108.85714"
   sodipodi:docname="bitmap.svg"
   xmlns:inkscape="http://www.inkscape.org/namespaces/inkscape"
   xmlns:sodipodi="http://sodipodi.sourceforge.net/DTD/sodipodi-0.dtd"
   xmlns:xlink="http://www.w3.org/1999/xlink"
   xmlns="http://www.w3.org/2000/svg"
   xmlns:svg="http://www.w3.org/2000/svg"><sodipodi:namedview
     id="namedview1"
     pagecolor="#ffffff"
     bordercolor="#000000"
     borderopacity="0.25"
     inkscape:showpageshadow="2"
     inkscape:pageopacity="0.0"
     inkscape:pagecheckerboard="0"
     inkscape:deskcolor="#d1d1d1"
     inkscape:document-units="mm"
     inkscape:export-bgcolor="#ffffff00" /><defs
     id="defs1"><marker
       inkscape:stockid="Distance start"
       orient="auto"
       refY="0"
       refX="0"
       id="DistanceStart"
       style="overflow:visible"
       markerWidth="1"
       markerHeight="1"
       viewBox="0 0 1 1"
       inkscape:isstock="true"
       inkscape:collect="always"
       preserveAspectRatio="xMidYMid"><g
         transform="scale(0.6)"
         id="g13"><path
           d="m 0,-40 v 0"
           id="path11" /><path
           d="M 0,0 8,5 V -5 Z"
           style="fill:context-stroke;fill-rule:evenodd;stroke:none"
           sodipodi:nodetypes="ccccc"
           id="path12" /><path
           d="M 0,-8 V 40"
           style="fill:none;stroke:context-stroke;stroke-width:1;stroke-linecap:square"
           id="path13" /></g></marker><linearGradient
       id="swatch10"
       inkscape:swatch="solid"><stop
         style="stop-color:#000000;stop-opacity:1;"
         offset="0"
         id="stop10" /></linearGradient></defs><g
     inkscape:label="Camada 1"
     inkscape:groupmode="layer"
     id="layer1"><g
       id="g26"
       transform="translate(-107.55841,-193.5273)"><g
         id="g25"
         transform="translate(44.981863,169.82786)"
         style="fill:#2a7fff;fill-opacity:1;stroke:#2a7fff;stroke-width:0.2;stroke-dasharray:none"><g
           id="g23"
           style="fill:#2a7fff;fill-opacity:1;stroke:#2a7fff;stroke-width:0.2;stroke-dasharray:none"><path
             style="opacity:0.741;mix-blend-mode:normal;fill:#2a7fff;fill-opacity:1;stroke:#2a7fff;stroke-width:0.2;stroke-dasharray:none;marker-start:url(#DistanceStart);paint-order:markers fill stroke"
             d="m 90.421913,79.84265 c 1.42173,-5.428446 1.42173,-5.428446 1.42173,-5.428446 l 3.87746,-5.040688 5.040697,-3.36047 3.10197,-0.77549 0.51699,-3.74821 1.80948,-3.87747 2.97272,-4.13595 3.23122,-1.93873 4.26521,-0.90475 4.5237,0.51699 1.16324,-0.12925 5.42845,-5.42844 2.97272,-1.55099 3.23122,-0.90474 2.32648,-0.7755 1.73861,-0.21125 2.80916,-0.17025 3.83066,0.59588 5.78856,2.38353 5.61831,5.19268 3.74553,5.61831 1.9579,5.27781 v 1.70251 l 0.25537,0.34051 5.36293,2.55377 3.31991,2.38353 4.00092,5.19267 2.12814,3.575284 0.76614,4.5968 0.25537,5.78855 -0.93638,4.34142 -2.46865,4.85218 -4.34142,4.76704 -5.10755,3.06453 -3.40503,0.76614 -2.72403,0.681 -23.32449,-0.0851 -27.41053,-0.68101 -6.63982,-1.10663 -3.319907,-2.12815 -2.89428,-2.21327 -2.21327,-3.23478 -2.72402,-5.27781 -0.59589,-4.25629 0.25538,-5.61831 z"
             id="path18" /><path
             style="fill:#2a7fff;fill-opacity:1;stroke:#2a7fff;stroke-width:0.2;stroke-dasharray:none;paint-order:markers fill stroke"
             d="m 138.1441,103.98542 c 0.57624,0.0958 0.57624,0.0958 0.57624,0.0958 l -0.1047,10.85333 1.20486,0.95765 5.29096,3.67099 0.1047,0.0957 v 3.51138 l -0.0523,3.12831 0.1047,0.28729 0.78578,0.25538 0.3667,0.63844 -0.52385,0.86188 -1.25727,0.28729 -0.99532,-0.47883 -0.3667,-0.79804 0.62862,-0.73419 0.26194,-0.0638 0.0523,-6.35239 -1.93221,-1.43444 -2.43978,-1.71741 -2.23125,-1.60731 v -2.97313 -3.17817 l -0.028,-4.66472 0.0842,-0.44425 0.056,-0.29049 z"
             id="path19" /><use
             x="0"
             y="0"
             xlink:href="#path9"
             id="use19"
             transform="matrix(-1.1053353,0,0,1.6830447,256.89713,-75.249688)"
             style="fill:#2a7fff;fill-opacity:1;stroke:#2a7fff;stroke-width:0.146634;stroke-dasharray:none" /><use
             x="0"
             y="0"
             xlink:href="#path9"
             id="use20"
             transform="matrix(-0.8382109,0,0,0.6251924,232.88,36.765602)"
             style="fill:#2a7fff;fill-opacity:1;stroke:#2a7fff;stroke-width:0.276278;stroke-dasharray:none" /><use
             x="0"
             y="0"
             xlink:href="#path9"
             id="use21"
             transform="matrix(1.2131309,0,0,1.5112719,-4.190146,-55.683846)"
             style="fill:#2a7fff;fill-opacity:1;stroke:#2a7fff;stroke-width:0.147708;stroke-dasharray:none" /><use
             x="0"
             y="0"
             xlink:href="#path9"
             id="use22"
             transform="matrix(0.89131601,0,0,0.6251924,27.405652,39.059037)"
             style="fill:#2a7fff;fill-opacity:1;stroke:#2a7fff;stroke-width:0.267921;stroke-dasharray:none" /><path
             style="fill:#2a7fff;fill-opacity:1;stroke:#2a7fff;stroke-width:0.2;stroke-dasharray:none"
             d="m 132.79385,101.66677 c 0.0963,16.1949 -0.0962,16.31948 -0.0962,16.31948 l -2.9834,2.5538 -1.34733,-0.0623 -0.28872,0.0623 -0.86615,1.37034 0.67367,0.74745 2.59845,-0.62287 0.0963,-0.93433 2.50219,-2.11779 -0.28872,18.12582 0.0963,0.4983 -0.96239,0.68517 -0.19247,0.93433 2.02101,0.436 1.05862,-0.24914 0.0963,-1.30805 -0.76992,-0.74746 -0.0963,-25.4758 v -10.52668 z"
             id="path22" /><use
             x="0"
             y="0"
             xlink:href="#path9"
             id="use23"
             transform="matrix(-0.84511962,0,0,1.1147447,240.51977,-11.99252)"
             style="fill:#2a7fff;fill-opacity:1;stroke:#2a7fff;stroke-width:0.206055;stroke-dasharray:none" /><path
             style="fill:#2a7fff;fill-opacity:1;stroke:#2a7fff;stroke-width:0.2;stroke-dasharray:none"
             d="m 124.22779,79.63153 c 4.32303,-4.476234 9.00632,-9.400064 9.00632,-9.400064 l 9.7268,3.133338 -2.16151,6.714346 4.32301,-10.742931 8.64606,-5.8191 11.16782,-0.447623 -10.80756,0.895246 -10.44731,6.714347 -2.88202,8.952441 2.88202,-5.819103 -9.36655,-3.580961 z"
             id="path23" /></g><ellipse
           style="fill:#2a7fff;fill-opacity:1;stroke:#2a7fff;stroke-width:0.2;stroke-dasharray:none;paint-order:fill markers stroke"
           id="ellipse23"
           cx="133.30598"
           cy="138.46622"
           rx="1.815637"
           ry="1.6245174" /><ellipse
           style="fill:#2a7fff;fill-opacity:1;stroke:#2a7fff;stroke-width:0.2;stroke-dasharray:none;paint-order:fill markers stroke"
           id="ellipse24"
           cx="171.52992"
           cy="136.93726"
           rx="1.815637"
           ry="1.6245174" /><ellipse
           style="fill:#2a7fff;fill-opacity:1;stroke:#2a7fff;stroke-width:0.2;stroke-dasharray:none;paint-order:fill markers stroke"
           id="ellipse25"
           cx="128.71912"
           cy="121.83881"
           rx="1.815637"
           ry="1.6245174" /></g><g
         id="g15"
         transform="matrix(0.98495646,0,0,0.94889585,47.2118,176.79001)"><g
           id="g12"><path
             style="opacity:0.741;mix-blend-mode:normal;fill:#b5c2cb;fill-opacity:1;stroke-width:0.105833;stroke-dasharray:none;marker-start:url(#DistanceStart);paint-order:markers fill stroke"
             d="m 90.421913,79.84265 c 1.42173,-5.428446 1.42173,-5.428446 1.42173,-5.428446 l 3.87746,-5.040688 5.040697,-3.36047 3.10197,-0.77549 0.51699,-3.74821 1.80948,-3.87747 2.97272,-4.13595 3.23122,-1.93873 4.26521,-0.90475 4.5237,0.51699 1.16324,-0.12925 5.42845,-5.42844 2.97272,-1.55099 3.23122,-0.90474 2.32648,-0.7755 1.73861,-0.21125 2.80916,-0.17025 3.83066,0.59588 5.78856,2.38353 5.61831,5.19268 3.74553,5.61831 1.9579,5.27781 v 1.70251 l 0.25537,0.34051 5.36293,2.55377 3.31991,2.38353 4.00092,5.19267 2.12814,3.575284 0.76614,4.5968 0.25537,5.78855 -0.93638,4.34142 -2.46865,4.85218 -4.34142,4.76704 -5.10755,3.06453 -3.40503,0.76614 -2.72403,0.681 -23.32449,-0.0851 -27.41053,-0.68101 -6.63982,-1.10663 -3.319907,-2.12815 -2.89428,-2.21327 -2.21327,-3.23478 -2.72402,-5.27781 -0.59589,-4.25629 0.25538,-5.61831 z"
             id="path1" /><path
             style="fill:#02aff1;fill-opacity:1;stroke-width:0.264583;stroke-dasharray:none;paint-order:markers fill stroke"
             d="m 138.1441,103.98542 c 0.57624,0.0958 0.57624,0.0958 0.57624,0.0958 l -0.1047,10.85333 1.20486,0.95765 5.29096,3.67099 0.1047,0.0957 v 3.51138 l -0.0523,3.12831 0.1047,0.28729 0.78578,0.25538 0.3667,0.63844 -0.52385,0.86188 -1.25727,0.28729 -0.99532,-0.47883 -0.3667,-0.79804 0.62862,-0.73419 0.26194,-0.0638 0.0523,-6.35239 -1.93221,-1.43444 -2.43978,-1.71741 -2.23125,-1.60731 v -2.97313 -3.17817 l -0.028,-4.66472 0.0842,-0.44425 0.056,-0.29049 z"
             id="path9" /><use
             x="0"
             y="0"
             xlink:href="#path9"
             id="use9"
             transform="matrix(-1.1053353,0,0,1.6830447,256.89713,-75.249688)"
             style="stroke-width:0.193985;stroke-dasharray:none" /><use
             x="0"
             y="0"
             xlink:href="#path9"
             id="use10"
             transform="matrix(-0.8382109,0,0,0.6251924,232.88,36.765602)"
             style="stroke-width:0.365493;stroke-dasharray:none" /><use
             x="0"
             y="0"
             xlink:href="#path9"
             id="use1"
             transform="matrix(1.2131309,0,0,1.5112719,-4.190146,-55.683846)"
             style="stroke-width:0.195406;stroke-dasharray:none" /><use
             x="0"
             y="0"
             xlink:href="#path9"
             id="use2"
             transform="matrix(0.89131601,0,0,0.6251924,27.405652,39.059037)"
             style="stroke-width:0.354438;stroke-dasharray:none" /><path
             style="fill:#02a1de;fill-opacity:1;stroke-width:0.264583;stroke-dasharray:none"
             d="m 132.79385,101.66677 c 0.0963,16.1949 -0.0962,16.31948 -0.0962,16.31948 l -2.9834,2.5538 -1.34733,-0.0623 -0.28872,0.0623 -0.86615,1.37034 0.67367,0.74745 2.59845,-0.62287 0.0963,-0.93433 2.50219,-2.11779 -0.28872,18.12582 0.0963,0.4983 -0.96239,0.68517 -0.19247,0.93433 2.02101,0.436 1.05862,-0.24914 0.0963,-1.30805 -0.76992,-0.74746 -0.0963,-25.4758 v -10.52668 z"
             id="path2" /><use
             x="0"
             y="0"
             xlink:href="#path9"
             id="use3"
             transform="matrix(-0.84511962,0,0,1.1147447,240.51977,-11.99252)"
             style="stroke-width:0.272594;stroke-dasharray:none" /><path
             style="fill:#e6e6e6;fill-opacity:1;stroke-width:0.264583;stroke-dasharray:none"
             d="m 124.22779,79.63153 c 4.32303,-4.476234 9.00632,-9.400064 9.00632,-9.400064 l 9.7268,3.133338 -2.16151,6.714346 4.32301,-10.742931 8.64606,-5.8191 11.16782,-0.447623 -10.80756,0.895246 -10.44731,6.714347 -2.88202,8.952441 2.88202,-5.819103 -9.36655,-3.580961 z"
             id="path3" /></g><ellipse
           style="fill:#02aff1;fill-opacity:1;stroke-width:0.105833;stroke-dasharray:none;paint-order:fill markers stroke"
           id="path14"
           cx="133.30598"
           cy="138.46622"
           rx="1.815637"
           ry="1.6245174" /><ellipse
           style="fill:#02aff1;fill-opacity:1;stroke-width:0.105833;stroke-dasharray:none;paint-order:fill markers stroke"
           id="ellipse14"
           cx="171.52992"
           cy="136.93726"
           rx="1.815637"
           ry="1.6245174" /><ellipse
           style="fill:#02aff1;fill-opacity:1;stroke-width:0.105833;stroke-dasharray:none;paint-order:fill markers stroke"
           id="ellipse15"
           cx="128.71912"
           cy="121.83881"
           rx="1.815637"
           ry="1.6245174" /></g></g></g></svg>
